<svg xmlns="http://www.w3.org/2000/svg" xmlns:xlink="http://www.w3.org/1999/xlink" width="330" height="220" viewBox="0 0 330 220">
  <defs>
    <clipPath id="clip-path">
      <rect id="gettyimages-634690046-594x594" width="330" height="220" transform="translate(-10202 -1987)" fill="#f0f0f0"/>
    </clipPath>
  </defs>
  <g id="Athlete-blank" transform="translate(10202 1987)">
    <g id="Group_1571" data-name="Group 1571">
      <rect id="gettyimages-634690046-594x594-2" data-name="gettyimages-634690046-594x594" width="330" height="220" transform="translate(-10202 -1987)" fill="#f0f0f0"/>
    </g>
    <g id="Mask_Group_105" data-name="Mask Group 105" clip-path="url(#clip-path)">
      <g id="Group_1570" data-name="Group 1570">
        <path id="Path_1236" data-name="Path 1236" d="M207.81,246.752a4.913,4.913,0,0,0-1.165-2.314c-1.662-1.661-18.763-8.469-18.763-8.469s-1.092.684-1.727.541c-6.056-1.865-20.64-3.755-25.684-7.591-1.1-.838-1.175-.689-2.212-1.553-.86-.716-1.392-3.749-1.467-4.867-.127-1.888-.323-5.079-.429-8.3-.153-4.609.683-10.6,2.094-12.728a22.555,22.555,0,0,0,3.476-8.944,52.856,52.856,0,0,0,.711-7.968,3.937,3.937,0,0,0,4.742-1.725,26.9,26.9,0,0,1,.94-3.236,12.22,12.22,0,0,0,.81-3.284,26.654,26.654,0,0,1,1.473-7.084,11.608,11.608,0,0,0,.762-7.154c-.511-2.338-1.678-4.261-4.273-3.1,0,0,.121-7.694.459-8.806,1.272-4.18,2.329-11.515,2.847-13.757a64.812,64.812,0,0,0-.912-16.958c-1.737-8.586-11.329-15.811-11.329-15.811-2.2-1.739-13.1-4.6-13.1-4.6l-4.455-.575c.719-1.868-6.755-.719-6.755-.719-12.36-4.887-16.815,1.581-16.815,1.581-10.348.431-8.336,3.018-8.336,3.018-7.617,2.3-12.934,10.635-12.934,10.635-1.909,0-3.686,7.177-4.893,13.586-.942,5-1.2,21.274-.007,24.738.553,1.6,1.738,7.665,1.738,7.665-2.6-1.163-3.767.769-4.276,3.112a11.576,11.576,0,0,0,.761,7.134,26.622,26.622,0,0,1,1.477,7.1,11.947,11.947,0,0,0,.8,3.248,26.638,26.638,0,0,1,.952,3.265,3.937,3.937,0,0,0,4.742,1.725,52.84,52.84,0,0,0,.711,7.967,22.549,22.549,0,0,0,3.476,8.944,20.019,20.019,0,0,1,1.543,2.5c.674.961,1.05,3.171.552,10.232-.106,3.217-.3,5.407-.429,7.3-.075,1.118-.607,4.15-1.468,4.867-1.036.864-1.109,1.715-2.211,2.553-5.044,3.836-18.745,7.727-24.8,9.591-.3.081-.682-.548-1.263-.389-11.122,3.041-17.039,6.064-19.18,7.447-.276.175,0,1.184,0,1.184s-20.577,2.44-28.7,10.564c-4.234,3.245-11.618,10.417-12.728,20.77H248.534c-.268-6.6-6.231-14.7-10.534-19.77C225.5,246.884,207.81,246.752,207.81,246.752Z" transform="translate(-10167.34 -2044.943)" fill="#5f5f5f"/>
        <path id="Path_1238" data-name="Path 1238" d="M-10090.338-1807.894s.688-.377,1.364,1.144c1.084,2.438,8.4,10.273,11.337,12.9,11.183,5.493,16.4,5.9,43.961,6.305s30.468-.1,42.1-6.7c4.816-2.4,7.987-4.562,8.593-7.431a66.582,66.582,0,0,0,.264-7.139,6.817,6.817,0,0,1,3.558,0c3.988,1.406,16.383,6.925,18.31,8.083,2.509,1.507,2.9,2.607,2.9,2.607s1.187,21.56,2.391,25.916a35.7,35.7,0,0,1,1.258,5.352l-153.527-.023s-.062.054,0-1.481-.486-12.208-1.17-15.017c-.49-2.014-4.644-12.464-6.055-14.6-.314-.48,1.253-1.748,1.253-1.748s6.2-2.86,10.82-4.443S-10090.338-1807.894-10090.338-1807.894Z" fill="#4f4f4f"/>
        <path id="Path_1239" data-name="Path 1239" d="M-10084.463-1767v-3.334s39.708-.365,45.668,0,49.57.286,51.644,0a40.061,40.061,0,0,1,6.058,0h3.408V-1767Z" fill="#ccc"/>
      </g>
    </g>
  </g>
</svg>
